<?xml version="1.0" standalone="no"?>
<!DOCTYPE svg PUBLIC "-//W3C//DTD SVG 20010904//EN"
 "http://www.w3.org/TR/2001/REC-SVG-20010904/DTD/svg10.dtd">
<svg version="1.0" xmlns="http://www.w3.org/2000/svg"
 width="1088.000000pt" height="1088.000000pt" viewBox="0 0 1088.000000 1088.000000"
 preserveAspectRatio="xMidYMid meet">
<metadata>
Created by potrace 1.14, written by Peter Selinger 2001-2017
</metadata>
<g transform="translate(0.000000,1088.000000) scale(0.100000,-0.100000)"
fill="#000000" stroke="none">
<path d="M10699 9825 c-1 -3 -2 -13 -3 -22 -1 -10 -8 -43 -14 -73 -15 -68 -15
-65 -47 -230 -33 -167 -33 -165 -36 -165 -1 0 -3 -9 -4 -20 -2 -11 -5 -31 -8
-45 -3 -14 -8 -42 -12 -62 -10 -54 -31 -68 -41 -26 l-7 33 -14 -40 c-8 -22
-14 -58 -15 -80 0 -34 -7 -47 -46 -85 -29 -29 -47 -55 -48 -72 -1 -14 -4 -30
-7 -35 -3 -5 -8 -27 -11 -49 -4 -22 -9 -51 -11 -64 -3 -14 -8 -45 -11 -70 -3
-25 -8 -52 -9 -60 -7 -35 -137 -407 -154 -438 -6 -12 -9 -22 -5 -22 3 0 1 -7
-6 -15 -7 -8 -9 -15 -5 -15 4 0 3 -6 -2 -12 -5 -7 -20 -38 -32 -69 -15 -37
-31 -60 -47 -67 -13 -7 -24 -17 -25 -24 -2 -48 -29 -128 -43 -128 -1 0 -2 23
-1 51 l2 51 -45 -51 c-45 -51 -56 -58 -80 -42 -11 6 -10 15 5 47 23 51 23 51
33 34 7 -11 14 -12 34 -2 23 10 26 18 26 61 0 29 5 53 14 60 14 12 28 61 17
61 -3 0 -19 -18 -34 -40 -52 -73 -74 -14 -26 70 37 64 41 77 46 148 5 61 5 62
-18 59 -21 -4 -24 -10 -25 -48 -1 -67 -13 -117 -43 -184 -25 -54 -26 -63 -14
-82 16 -24 27 -73 16 -73 -5 0 -17 7 -27 15 -11 8 -23 15 -27 15 -13 0 -28
-61 -32 -130 -2 -25 -7 -51 -11 -58 -4 -7 -5 -12 -2 -12 3 0 -1 -19 -9 -41 -8
-23 -15 -43 -15 -45 0 -1 16 0 35 3 19 3 35 2 35 -3 0 -14 -46 -136 -64 -169
-17 -32 -18 -27 -17 44 0 24 -2 42 -4 39 -2 -2 -23 -60 -45 -129 -22 -68 -45
-133 -50 -144 -10 -21 -61 -173 -64 -190 -1 -5 -5 -16 -9 -22 -5 -7 -10 -21
-12 -30 -2 -10 -20 -65 -40 -123 -20 -58 -39 -113 -40 -122 -2 -10 -8 -25 -13
-34 -5 -9 -7 -25 -5 -35 3 -11 -8 -40 -26 -67 -26 -41 -82 -201 -96 -273 -2
-11 -6 -23 -9 -27 -2 -4 -7 -28 -11 -52 -4 -25 -16 -65 -28 -90 -11 -25 -22
-49 -22 -55 -2 -10 -28 -73 -45 -110 -6 -11 -12 -29 -13 -40 -2 -11 -8 -29
-13 -40 -8 -19 -9 -56 -2 -154 l3 -44 -48 -4 c-42 -3 -48 -1 -56 19 -12 33 -5
88 21 155 12 32 23 60 23 63 0 3 13 38 29 78 19 51 26 81 21 100 -9 37 -10 61
-2 102 12 68 18 93 28 112 5 10 8 18 5 18 -5 0 36 120 73 216 11 29 17 55 13
58 -8 9 -11 88 -4 101 4 6 7 15 9 20 1 6 5 24 9 40 3 17 7 37 8 45 1 9 5 20 9
26 10 17 -3 25 -24 14 -9 -6 -24 -7 -32 -4 -18 7 -38 49 -28 60 6 7 40 107 46
134 6 25 28 99 34 115 7 17 28 85 37 120 7 29 67 224 77 249 6 17 12 38 12 48
1 10 5 21 8 24 3 4 2 15 -3 24 -7 14 -1 32 25 76 19 32 35 61 35 65 0 3 7 23
15 43 8 20 16 39 16 43 0 5 7 22 14 40 11 27 11 32 -1 37 -21 8 -34 48 -20 65
6 8 10 16 9 18 -5 6 -3 18 6 32 8 12 12 12 25 2 13 -11 17 -10 21 5 4 11 14
40 25 66 10 27 14 50 9 54 -5 3 -9 0 -9 -6 0 -17 -17 -3 -23 20 -3 11 -1 18 4
14 5 -3 6 2 3 10 -10 26 4 50 20 37 11 -9 12 -2 8 38 -5 52 7 70 31 47 12 -13
17 -6 34 57 18 64 18 74 5 89 -23 27 -8 52 29 44 29 -6 30 -5 28 27 -2 18 0
38 5 45 5 8 -3 17 -25 26 -39 17 -54 13 -56 -15 -1 -11 -8 -33 -15 -49 -11
-25 -17 -28 -50 -27 -21 2 -38 -1 -38 -5 0 -4 12 -8 26 -8 23 0 25 -3 20 -27
-11 -47 -15 -76 -21 -142 -6 -69 -29 -129 -54 -139 -28 -11 -50 -45 -40 -64
13 -24 12 -26 -13 -30 -13 -2 -24 -11 -26 -21 -3 -16 -1 -17 17 -8 13 7 22 8
26 1 7 -11 -18 -40 -34 -40 -6 0 -11 -4 -11 -10 0 -5 -5 -10 -11 -10 -6 0 -21
-8 -32 -17 -18 -15 -22 -29 -23 -78 -1 -33 -7 -73 -14 -90 -7 -16 -14 -34 -16
-40 -2 -5 -15 -41 -29 -80 -28 -73 -47 -175 -23 -125 6 14 12 27 13 30 0 3 11
28 24 55 12 28 29 64 37 82 8 17 14 35 14 41 0 5 6 15 13 21 10 8 19 6 35 -10
22 -19 30 -49 14 -49 -11 0 -106 -183 -127 -245 -10 -27 -18 -77 -19 -110 -1
-45 -7 -68 -24 -90 -12 -16 -35 -57 -51 -91 l-29 -61 23 -55 c21 -52 21 -57 6
-70 -9 -8 -22 -13 -27 -11 -6 2 -22 -23 -36 -54 -37 -85 -63 -147 -64 -153 0
-3 -6 -23 -12 -45 -6 -22 -10 -53 -8 -70 2 -16 -4 -46 -14 -65 -16 -32 -26
-63 -79 -240 -32 -108 -82 -200 -107 -200 -17 0 -25 -27 -15 -53 8 -20 -15
-115 -46 -197 -4 -8 -7 -18 -8 -22 -2 -5 -3 -9 -5 -10 -1 -2 -3 -10 -5 -18
-12 -51 -104 -312 -114 -324 -7 -8 -18 -13 -25 -10 -11 4 -8 22 11 82 27 85
71 228 77 252 3 8 11 35 19 60 14 42 27 85 79 260 11 36 24 76 29 90 5 14 11
34 13 45 3 11 16 56 31 100 14 44 28 90 31 103 3 13 20 69 38 125 49 150 69
218 64 222 -2 3 -12 -21 -22 -53 -20 -63 -41 -92 -65 -92 -13 0 -16 -12 -17
-63 -1 -78 -33 -148 -64 -140 -18 5 -19 3 -9 -26 13 -36 5 -81 -14 -81 -7 0
-26 -47 -45 -108 -18 -59 -36 -114 -39 -122 -3 -8 -8 -24 -10 -35 -2 -11 -6
-27 -10 -35 -3 -8 -7 -18 -8 -22 -2 -5 -3 -9 -5 -10 -1 -2 -3 -10 -5 -18 -1
-8 -13 -45 -25 -83 -12 -37 -23 -73 -24 -80 -2 -6 -6 -19 -9 -27 -3 -8 -24
-76 -47 -150 -23 -74 -44 -142 -47 -150 -4 -8 -7 -18 -8 -22 -2 -5 -3 -9 -5
-10 -1 -2 -3 -11 -5 -21 -2 -9 -15 -56 -30 -104 -15 -47 -28 -91 -30 -97 -1
-6 -5 -18 -8 -26 -7 -16 -67 -210 -67 -216 0 -2 -5 -3 -12 -1 -8 1 -12 -17
-13 -58 -1 -49 -8 -73 -40 -134 -32 -61 -39 -83 -38 -129 0 -50 -3 -60 -33
-92 -19 -19 -35 -44 -35 -55 -1 -11 -3 -24 -4 -30 -22 -145 -23 -147 -37 -157
-7 -4 -10 -8 -6 -8 8 0 -8 -40 -64 -160 -22 -47 -39 -87 -38 -89 1 -2 -2 -7
-7 -10 -4 -3 -24 -37 -44 -76 -29 -56 -34 -74 -27 -92 9 -18 5 -26 -26 -54
-40 -34 -76 -96 -76 -128 0 -15 -5 -19 -20 -16 -42 8 -47 -2 -42 -80 l4 -74
-54 -27 c-29 -14 -58 -36 -64 -47 -20 -44 -89 -172 -94 -177 -3 -3 -25 -45
-50 -93 -68 -133 -114 -175 -193 -175 -32 0 -37 3 -38 24 -2 33 -2 35 -18 72
l-14 33 -18 -27 c-28 -43 -121 -134 -136 -134 -8 0 -12 4 -9 9 3 5 8 26 12 46
3 21 9 47 14 59 7 18 -8 37 -95 126 -71 73 -113 125 -136 170 -18 36 -33 68
-34 72 0 3 -3 9 -7 13 -3 4 -4 18 -2 32 3 17 -4 37 -23 62 -38 50 -46 59 -64
79 -31 33 -45 67 -44 105 1 20 -2 37 -7 37 -4 0 -8 -8 -8 -17 0 -9 -19 20 -42
65 -23 46 -51 88 -62 94 -19 10 -49 44 -52 58 0 3 -4 23 -9 45 -5 22 -9 42
-10 45 -2 14 -22 38 -40 48 -13 7 -35 57 -72 163 -50 146 -51 154 -36 180 15
25 15 28 -25 78 -23 29 -47 71 -54 94 -6 23 -19 53 -28 67 -25 40 -50 99 -57
135 -1 11 -16 32 -31 46 -16 14 -32 41 -35 60 -4 19 -12 57 -18 84 -12 57 -18
88 -24 130 -7 52 -21 99 -43 140 -19 35 -20 40 -6 48 8 5 22 6 30 3 17 -7 18
-2 2 16 -7 8 -25 38 -40 68 -24 48 -36 100 -53 230 -3 19 -7 46 -10 60 -3 14
-8 43 -11 65 -3 22 -8 52 -10 68 -2 15 -6 39 -8 55 -7 44 -27 175 -32 202 -2
14 -7 47 -10 73 -3 27 -15 72 -26 100 -11 29 -24 68 -30 87 -5 19 -13 40 -17
45 -4 6 -16 32 -25 58 -10 26 -29 58 -43 71 -20 19 -24 30 -20 62 6 50 17 84
27 84 5 0 7 20 6 45 -2 25 3 71 10 102 8 32 16 71 19 87 3 16 10 36 14 45 5 9
9 18 9 21 -1 3 9 39 22 80 12 41 24 80 25 85 4 15 6 22 14 53 5 17 4 39 -3 57
l-12 28 -16 -39 c-9 -21 -19 -47 -22 -57 -5 -16 -8 -16 -19 -5 -8 7 -20 31
-27 53 -7 22 -15 45 -18 50 -7 11 -28 -107 -37 -200 -9 -99 -15 -144 -24 -168
-4 -12 -7 -30 -6 -39 2 -10 -1 -18 -6 -18 -24 0 -34 86 -16 145 34 113 26 259
-18 347 -20 40 -19 48 3 43 26 -5 46 10 39 29 -4 9 -1 16 5 16 7 0 7 4 1 13
-5 6 -8 21 -7 32 4 44 15 98 23 113 5 9 8 60 7 112 -2 97 5 141 29 195 29 64
33 81 23 98 -5 10 -12 16 -16 13 -4 -2 -23 3 -42 13 -24 11 -36 24 -38 41 -5
36 -17 44 -19 12 0 -15 -4 -38 -7 -52 -3 -14 -8 -34 -10 -45 -2 -11 -8 -33
-12 -50 -4 -16 -8 -41 -10 -55 -1 -14 -3 -25 -4 -25 -1 0 -4 -11 -6 -25 -10
-52 -13 -65 -14 -65 -1 0 -3 -9 -5 -20 -4 -30 -15 -84 -26 -135 -6 -25 -13
-55 -15 -67 -2 -13 -6 -33 -8 -45 -2 -13 -12 -56 -21 -97 l-17 -74 -52 54
c-129 138 -131 143 -111 274 4 28 9 53 11 56 3 6 14 102 19 165 1 22 7 53 12
70 15 45 1 62 -22 27 -10 -15 -34 -44 -52 -63 l-34 -35 6 40 c13 80 13 175 -1
183 -7 4 -35 5 -62 4 -50 -4 -56 -9 -66 -62 -1 -3 -5 -11 -9 -17 -5 -7 -6 -13
-3 -13 3 0 -4 -26 -15 -57 -11 -32 -22 -67 -25 -78 -2 -12 -13 -48 -24 -80
-12 -33 -23 -82 -25 -108 -5 -57 -30 -144 -46 -163 -6 -8 -9 -14 -5 -14 4 0
-2 -17 -13 -37 -10 -21 -20 -42 -21 -48 -1 -5 -8 -24 -16 -41 -12 -25 -21 -31
-49 -32 l-34 -1 0 97 c0 90 14 163 49 262 26 70 38 166 25 191 l-12 22 -12
-21 c-6 -11 -11 -26 -11 -31 0 -6 -8 -30 -19 -54 -10 -23 -27 -62 -37 -87 -21
-50 -142 -180 -168 -180 -9 0 -16 -4 -16 -10 0 -5 10 -10 23 -10 38 0 51 -14
36 -38 -20 -31 -37 -34 -53 -9 -7 12 -30 48 -50 80 -20 31 -36 61 -36 66 0 5
-5 11 -12 13 -6 2 -13 22 -14 44 -1 21 -3 44 -3 49 -1 6 -15 -12 -33 -40 -17
-27 -34 -52 -38 -55 -15 -11 -28 -48 -35 -105 -5 -33 -9 -64 -10 -70 -1 -5 -3
-21 -4 -35 l-2 -25 -11 23 c-15 30 -26 28 -34 -5 -4 -16 -13 -37 -20 -48 -11
-18 -43 -115 -51 -155 -1 -8 -3 -44 -4 -80 -2 -74 -6 -85 -24 -70 -11 9 -12
30 -5 65 1 6 2 25 1 43 -1 26 -5 32 -22 32 -16 0 -20 5 -16 20 8 30 -8 33 -35
5 -23 -22 -24 -31 -23 -117 1 -66 6 -102 18 -125 12 -23 16 -50 14 -88 -2 -35
1 -62 10 -74 29 -42 19 -105 -18 -116 -45 -15 -73 -15 -101 0 -69 34 -113 11
-121 -62 -5 -37 -2 -45 26 -70 18 -15 44 -34 59 -42 52 -27 66 -48 77 -118 18
-109 26 -192 22 -239 -1 -7 -10 -14 -20 -17 -19 -5 -41 26 -41 58 0 24 -18 17
-33 -11 -12 -23 -15 -24 -27 -9 -22 27 -14 218 11 267 12 23 11 38 -2 38 -6 0
-33 16 -59 35 l-48 35 3 -67 c2 -38 8 -81 14 -96 6 -15 10 -31 9 -35 -1 -4 3
-23 10 -42 6 -19 13 -46 14 -60 2 -14 6 -29 10 -35 5 -8 18 -72 23 -110 1 -5
-9 -28 -22 -50 -44 -75 -80 -163 -98 -237 -2 -9 -9 -27 -16 -40 -7 -13 -11
-23 -10 -23 2 0 -13 -45 -26 -75 -3 -8 -7 -17 -8 -20 -1 -3 -7 -18 -14 -34
-15 -36 -9 -44 11 -14 20 30 58 114 58 127 0 6 10 35 22 65 24 59 70 98 91 77
8 -8 8 -11 0 -11 -6 0 -14 -16 -17 -35 -4 -19 -10 -35 -14 -35 -5 0 -14 -17
-22 -37 -7 -21 -26 -66 -42 -100 -15 -34 -28 -66 -28 -72 0 -6 -4 -11 -10 -11
-5 0 -10 -5 -10 -11 0 -11 -40 -106 -93 -219 -17 -36 -31 -69 -33 -75 -1 -5
-17 -42 -37 -82 -19 -39 -32 -74 -29 -77 3 -3 0 -6 -6 -6 -7 0 -12 -6 -12 -14
0 -8 -6 -27 -14 -43 -24 -46 -46 -100 -46 -112 0 -6 -4 -11 -10 -11 -5 0 -10
-9 -10 -20 0 -11 -5 -20 -10 -20 -6 0 -9 -3 -8 -7 1 -9 -11 -39 -48 -121 -42
-92 -44 -98 -29 -113 12 -12 5 -22 -40 -66 -29 -28 -55 -49 -58 -47 -7 7 30
102 144 374 13 30 28 58 34 62 5 4 7 8 2 8 -4 0 -1 12 7 28 7 15 30 70 49 123
59 157 70 241 17 124 -14 -30 -29 -55 -34 -55 -5 0 -7 -3 -3 -6 3 -3 -5 -24
-18 -45 -51 -79 -135 -255 -138 -289 -2 -19 -20 -66 -40 -105 -37 -72 -58
-120 -63 -144 -1 -7 -7 -18 -13 -24 -6 -6 -11 -17 -11 -25 0 -8 -6 -28 -14
-45 -30 -65 -86 -211 -86 -224 0 -7 -5 -13 -10 -13 -6 0 -9 -3 -9 -7 1 -5 0
-11 -1 -15 -1 -5 -3 -11 -4 -15 -1 -5 -10 -25 -19 -47 -9 -21 -17 -40 -17 -42
0 -3 -104 -221 -182 -381 -31 -64 -39 -91 -37 -125 l4 -43 -55 0 -55 0 -6 -44
c-6 -46 -35 -79 -90 -101 -19 -8 -30 -25 -43 -65 -9 -30 -23 -61 -31 -69 -8
-8 -15 -18 -15 -23 0 -14 -81 -103 -89 -98 -4 2 -8 23 -9 46 -1 23 -4 45 -7
47 -3 3 4 19 14 36 10 17 31 54 47 81 l29 50 -30 -19 c-17 -10 -46 -31 -65
-46 -102 -78 -147 -46 -71 50 44 55 48 69 30 103 -17 33 -125 179 -157 212 -6
8 -12 17 -12 21 0 4 -7 15 -16 25 -9 10 -24 33 -34 51 -38 69 -139 273 -140
283 -1 6 -7 17 -14 25 -24 29 -79 164 -81 199 -3 35 -11 104 -20 166 -2 17 -7
66 -10 109 -4 44 -8 94 -11 110 -2 17 -7 94 -10 171 -4 77 -11 146 -17 153
-15 19 -14 651 2 680 6 12 10 22 7 22 -3 0 0 15 5 33 5 17 12 56 15 85 5 44 3
55 -11 66 -17 12 -15 16 22 63 52 67 70 108 53 128 -16 19 -40 20 -40 1 0 -7
-7 -19 -15 -26 -8 -7 -15 -21 -15 -31 0 -23 -18 -25 -27 -3 -3 8 -6 166 -7
350 -1 261 2 334 12 334 6 0 12 -4 12 -10 0 -5 5 -10 10 -10 6 0 10 13 10 29
0 26 -3 29 -34 29 -45 0 -59 9 -47 30 6 12 3 35 -10 72 -33 92 -78 237 -85
280 -12 61 -12 109 -2 144 6 23 12 44 14 49 1 4 2 8 4 10 1 1 3 17 5 35 3 30
2 32 -23 28 -15 -2 -28 -5 -29 -6 -2 -2 -6 -3 -10 -4 -5 -1 -26 -10 -48 -20
-97 -43 -161 -28 -163 38 -1 20 3 47 8 61 11 29 -2 72 -39 130 -14 22 -24 48
-22 58 3 24 -23 102 -61 179 -17 35 -31 73 -32 86 0 31 -9 17 -35 -55 l-23
-62 -61 65 c-33 35 -68 64 -76 64 -9 0 -25 7 -35 15 -19 15 -19 15 2 15 20 0
21 2 10 20 -15 23 -28 26 -28 6 0 -8 -8 -17 -17 -20 -14 -6 -11 -13 19 -44 50
-52 55 -74 23 -108 -17 -19 -22 -30 -14 -35 16 -10 20 -58 8 -96 -13 -40 -21
-41 -45 -5 -34 49 -41 67 -39 100 1 18 -2 35 -5 37 -4 3 -6 20 -3 40 3 27 -2
41 -24 64 -16 16 -35 38 -44 48 -27 32 -119 106 -157 128 -40 22 -90 24 -103
3 -12 -19 -3 -25 29 -20 51 7 44 -15 -17 -60 -33 -23 -69 -60 -81 -80 -12 -21
-25 -38 -29 -38 -5 0 -14 -14 -21 -30 -16 -39 -23 -43 -54 -29 -20 10 -26 19
-26 46 0 31 -1 32 -20 21 -30 -19 -27 -82 6 -120 29 -35 23 -45 -26 -49 -38
-2 -67 7 -88 28 -17 16 -9 43 13 43 8 0 14 3 13 8 -1 4 1 28 6 54 8 52 29 72
77 70 l27 -1 -16 50 c-9 27 -19 49 -23 49 -4 0 -22 -26 -40 -57 -17 -32 -41
-73 -52 -91 l-19 -33 -27 32 c-25 29 -28 30 -43 16 -33 -34 -154 -15 -141 21
3 10 -12 -1 -35 -23 -44 -44 -63 -60 -103 -90 l-26 -20 37 -43 c35 -39 39 -41
45 -22 3 11 11 20 16 20 6 0 7 5 4 10 -3 6 -2 10 3 10 5 0 14 12 21 26 8 19
16 24 29 19 40 -17 49 -14 90 23 37 34 48 38 74 33 23 -5 34 -14 39 -34 4 -15
4 -27 -1 -27 -7 0 -41 -62 -46 -85 -20 -87 -84 -193 -117 -195 -9 0 -31 50
-28 64 1 4 -10 5 -24 2 -33 -8 -65 1 -65 18 0 7 -9 23 -19 35 l-19 22 -7 -40
c-3 -21 -15 -47 -25 -56 -17 -16 -19 -15 -26 17 -5 18 -7 45 -6 61 1 15 1 27
-1 27 -1 0 -37 -18 -80 -39 -77 -39 -78 -39 -55 -55 20 -14 23 -14 31 -1 11
21 61 19 81 -4 10 -10 23 -41 30 -67 13 -52 14 -190 2 -238 -7 -27 -6 -28 20
-22 19 5 30 2 38 -10 11 -14 13 -12 14 19 1 27 -4 39 -18 47 -30 16 -25 40 8
40 51 0 70 -34 53 -97 -6 -21 -12 -49 -15 -63 -3 -14 -12 -46 -20 -72 -8 -25
-12 -49 -9 -52 4 -3 1 -6 -5 -6 -7 0 -11 -3 -11 -7 3 -20 -2 -34 -11 -28 -5 3
-10 23 -10 43 l-1 37 -24 -28 c-32 -36 -33 -74 -1 -88 25 -12 25 -11 12 -119
-17 -145 -27 -214 -32 -222 -3 -4 -19 -1 -35 8 -17 8 -33 14 -35 11 -4 -4 -6
-19 -29 -247 -3 -30 -7 -64 -10 -75 -2 -11 -4 -25 -4 -32 -1 -7 -26 -27 -56
-45 -38 -22 -58 -41 -61 -58 -3 -14 -12 -50 -19 -80 -10 -41 -10 -57 -2 -62 8
-5 4 -15 -11 -31 -17 -18 -22 -35 -22 -74 0 -48 2 -52 32 -62 35 -13 42 -9 44
22 4 79 36 93 67 29 13 -26 35 -68 50 -94 41 -69 48 -122 51 -398 l1 -175 -49
-48 c-54 -52 -72 -55 -70 -13 1 24 0 25 -16 11 -9 -8 -19 -15 -22 -15 -3 0
-15 23 -27 51 -21 49 -22 51 -4 64 14 11 15 16 6 26 -21 22 -40 3 -37 -38 4
-81 8 -113 15 -113 4 0 7 -6 6 -12 -1 -45 2 -50 25 -34 12 9 26 16 30 16 9 0
-10 -55 -35 -100 -10 -19 -21 -46 -23 -60 -10 -60 -15 -72 -29 -66 -12 4 -15
-6 -15 -54 0 -66 1 -66 68 -27 44 26 59 18 59 -32 0 -42 -3 -45 -59 -57 -5 -1
-11 -3 -15 -4 -12 -4 -27 -7 -40 -8 -16 -2 -17 -61 -2 -99 6 -15 13 -67 14
-114 3 -74 7 -91 26 -113 23 -26 29 -62 31 -173 1 -34 5 -43 19 -43 46 0 48
-11 8 -47 -36 -33 -38 -37 -24 -53 8 -9 15 -21 15 -27 0 -6 3 -13 8 -15 4 -1
17 -17 28 -35 l20 -32 -4 68 c-4 67 -4 68 33 104 44 43 52 40 84 -28 17 -37
59 -172 65 -210 1 -5 5 -16 10 -23 4 -7 6 -16 3 -19 -3 -3 0 -22 7 -42 12 -30
48 -173 52 -206 1 -5 3 -13 4 -17 5 -14 7 -23 15 -63 4 -22 10 -49 12 -60 3
-11 13 -58 22 -105 10 -47 20 -93 24 -102 15 -39 20 -54 23 -68 2 -8 7 -23 12
-35 6 -11 15 -33 20 -50 38 -108 85 -232 93 -241 5 -6 7 -13 4 -16 -3 -2 6
-28 20 -56 14 -29 25 -55 25 -60 0 -4 13 -39 29 -77 31 -78 35 -154 11 -235
-7 -25 -13 -48 -12 -52 1 -5 -1 -8 -5 -8 -10 0 -13 -79 -4 -81 3 -1 16 -3 27
-4 12 -1 26 -5 31 -8 17 -11 12 -58 -9 -94 -18 -30 -19 -33 -3 -33 26 0 44
-30 38 -65 -6 -42 29 -117 71 -149 57 -43 63 -53 71 -113 7 -59 40 -143 56
-143 5 0 9 -4 9 -9 0 -18 55 -71 73 -71 35 0 75 -29 87 -64 6 -19 32 -54 58
-78 45 -42 162 -132 172 -133 3 0 31 -17 63 -38 32 -20 63 -38 70 -40 7 -1 14
-5 17 -8 9 -11 132 -70 285 -135 83 -35 162 -71 178 -80 15 -8 35 -17 45 -19
9 -2 39 -10 65 -18 39 -13 50 -13 60 -2 13 14 45 5 122 -33 25 -13 55 -19 80
-17 22 1 45 -1 52 -7 6 -5 26 -7 42 -5 23 4 31 1 31 -9 0 -25 25 -26 88 -5 72
24 102 26 102 7 0 -33 54 -29 63 5 6 23 35 25 43 4 4 -10 14 -13 33 -9 36 8
59 12 106 18 125 18 177 26 200 31 11 2 43 7 70 10 28 4 54 8 60 9 5 0 15 7
23 13 7 7 36 20 65 29 85 26 150 45 177 50 24 5 162 92 168 107 2 4 9 7 16 7
6 0 35 16 65 35 29 19 55 35 57 35 3 0 33 19 66 42 34 22 74 42 90 44 41 5
100 38 139 77 52 53 99 106 99 112 0 12 67 92 133 157 37 37 67 71 67 77 0 5
3 11 8 13 9 3 102 144 102 154 0 3 8 18 19 32 26 37 173 322 166 322 -3 0 6
18 20 40 14 22 23 40 20 40 -3 0 2 11 11 25 9 14 14 34 11 44 -2 10 -1 25 4
32 4 7 4 16 -1 19 -5 3 2 22 15 42 14 21 25 42 25 47 0 6 4 11 9 11 12 0 49
121 47 155 -1 17 -8 50 -15 74 -10 36 -10 48 3 75 9 18 14 42 11 54 -4 24 92
225 105 217 19 -12 45 -87 54 -155 2 -8 6 -25 10 -37 4 -12 9 -37 11 -55 3
-18 9 -55 15 -83 6 -27 13 -66 16 -85 3 -19 9 -51 14 -70 5 -19 11 -46 14 -60
2 -14 12 -58 21 -99 9 -40 19 -80 20 -90 2 -9 4 -16 5 -16 1 0 3 -11 6 -25 2
-14 6 -35 9 -47 3 -13 6 -26 6 -30 0 -5 7 -15 14 -23 7 -8 13 -19 13 -23 -1
-5 11 -34 25 -65 66 -146 126 -315 130 -365 2 -24 3 -25 15 -10 6 9 12 21 12
27 0 5 12 22 26 37 l26 27 49 -51 c28 -28 56 -65 64 -82 58 -129 95 -220 95
-231 0 -8 5 -14 10 -14 6 0 10 -7 10 -16 0 -9 9 -29 21 -45 11 -16 17 -29 12
-29 -4 0 -3 -4 2 -8 6 -4 21 -28 35 -54 13 -27 28 -48 32 -48 5 0 8 -6 8 -13
0 -6 25 -41 55 -75 30 -35 53 -67 51 -70 -2 -4 9 -25 25 -47 16 -22 33 -50 38
-62 17 -38 193 -208 238 -229 29 -15 56 -20 92 -18 l51 4 0 -35 c0 -18 4 -36
9 -39 11 -7 32 49 23 60 -4 4 1 4 11 1 27 -10 175 -140 176 -154 1 -7 5 -13
10 -13 4 0 8 -14 7 -32 0 -23 4 -32 18 -34 34 -5 42 5 40 51 -2 41 -8 50 -91
133 -66 66 -105 97 -155 121 -52 24 -91 55 -170 135 -57 56 -114 110 -128 119
-21 15 -23 20 -12 37 6 11 12 21 12 23 0 2 -31 35 -68 73 -68 69 -139 154
-128 154 8 0 -23 37 -55 67 -37 34 -115 213 -98 224 18 11 28 2 45 -35 38 -83
164 -279 218 -340 14 -16 26 -32 26 -36 0 -12 192 -200 252 -247 31 -24 58
-52 60 -61 3 -10 63 -57 134 -107 274 -189 285 -195 366 -190 50 3 55 1 93
-36 45 -43 138 -102 187 -118 41 -13 71 -8 105 19 25 19 27 20 47 3 12 -10 23
-21 26 -24 23 -29 130 -56 174 -45 19 5 23 11 21 41 -2 24 2 35 11 35 7 0 15
-4 18 -9 12 -19 146 8 146 30 0 18 26 9 43 -15 l18 -24 82 47 c91 52 189 100
227 111 14 4 23 13 21 21 -9 34 -5 44 17 45 12 1 29 2 37 3 8 0 46 33 85 71
39 39 75 70 80 70 6 0 10 4 10 9 0 15 118 90 161 103 30 8 61 34 127 106 48
52 87 102 87 111 1 25 15 61 26 61 5 0 9 4 9 9 0 6 33 58 73 118 95 141 173
266 174 277 1 5 5 12 10 15 4 3 51 71 104 151 83 126 104 166 149 290 29 80
60 155 68 168 8 12 10 22 6 22 -5 0 -4 4 1 8 19 13 69 94 72 115 2 12 -4 27
-14 34 -16 12 -14 17 23 56 52 54 83 99 88 128 3 13 5 24 6 24 1 0 3 11 6 25
6 33 55 130 66 130 4 0 7 3 6 8 0 4 2 14 5 22 8 18 74 202 89 245 5 17 14 39
19 50 4 11 18 61 30 110 11 50 27 110 35 133 8 24 17 60 20 80 3 21 8 40 11
44 5 9 11 36 20 88 3 19 16 44 29 56 13 13 27 43 33 75 14 69 21 102 25 114 2
6 6 28 11 50 11 57 12 62 34 149 22 85 17 108 -19 99 -15 -4 -20 0 -20 15 0
12 -4 24 -10 27 -20 12 -9 56 26 110 20 30 41 55 46 55 5 0 2 7 -7 16 -17 18
-15 56 5 95 l13 23 18 -23 c11 -13 19 -29 19 -37 0 -22 15 -16 38 16 29 38 28
44 -8 70 -16 12 -30 24 -30 28 0 4 20 20 45 35 43 27 57 47 35 47 -15 0 -9
128 7 134 6 3 13 0 16 -7 3 -11 36 108 62 228 11 49 14 62 24 93 5 17 8 32 6
32 -3 0 0 11 5 25 5 14 12 38 15 53 3 15 8 36 10 47 9 39 15 65 19 83 9 37 25
108 30 132 3 14 7 36 10 50 24 107 25 132 11 147 -20 20 -20 19 25 70 39 45
48 63 32 63 -17 0 -8 33 14 57 13 14 26 39 30 56 4 18 9 35 10 40 1 4 2 8 4
10 3 3 17 65 25 109 3 15 10 39 15 54 6 14 13 58 17 96 3 43 19 103 38 153 19
48 29 87 24 92 -5 5 -4 25 2 47 14 52 20 79 21 94 1 6 4 12 8 12 3 0 6 8 7 18
1 10 13 55 28 99 30 94 36 137 18 138 -7 0 -13 2 -14 5 -1 9 21 64 35 90 28
49 58 135 63 180 2 25 9 63 15 85 5 22 11 47 13 55 2 8 8 27 14 43 6 15 9 27
6 27 -2 0 2 18 10 40 8 22 14 42 15 45 0 3 0 6 1 8 17 55 36 167 29 167 -20 0
-18 33 3 53 61 58 90 151 61 194 -14 23 -14 31 11 126 15 55 28 109 31 120 2
10 6 28 10 39 5 17 3 18 -13 10 -18 -10 -25 -12 -42 -12 -18 0 -17 -36 2 -68
18 -31 18 -34 3 -45 -9 -7 -18 -24 -20 -38 -1 -14 -14 -41 -28 -60 -15 -19
-29 -47 -32 -64 -3 -16 -7 -42 -10 -57 -4 -16 -8 -38 -10 -50 -3 -13 -7 -34
-10 -48 -8 -35 -24 -119 -30 -155 -6 -34 -20 -96 -42 -185 -3 -14 -9 -45 -14
-70 -4 -25 -17 -71 -30 -104 -12 -32 -24 -73 -25 -90 -2 -17 -15 -92 -30 -166
-15 -74 -29 -146 -31 -160 -10 -53 -13 -66 -23 -110 -5 -25 -12 -56 -15 -70
-16 -85 -29 -131 -52 -177 -14 -28 -27 -60 -29 -70 -2 -10 -4 -18 -5 -18 -1 0
-2 -18 -4 -40 -1 -22 -10 -56 -19 -75 -9 -19 -26 -66 -37 -105 -12 -38 -27
-86 -35 -105 -17 -45 -27 -74 -25 -78 1 -1 -17 -37 -40 -79 -38 -68 -42 -81
-36 -123 5 -37 2 -52 -12 -69 l-17 -23 -19 21 c-19 21 -19 22 0 59 21 37 22
48 9 112 -12 68 -6 106 34 204 22 54 45 104 51 111 6 7 12 42 14 76 2 35 15
104 30 152 15 51 27 116 28 155 1 47 8 81 24 113 12 25 41 115 63 200 22 85
47 181 56 214 19 69 15 53 54 215 24 103 52 215 77 310 24 95 75 299 78 315 3
11 10 43 16 70 19 82 20 87 36 165 9 41 17 86 19 100 16 109 34 180 46 180 5
0 9 11 9 25 0 18 -5 25 -19 25 -25 0 -38 20 -20 31 15 10 14 10 -18 14 -12 1
-36 8 -52 15 -29 11 -30 14 -33 88 -4 99 1 152 13 152 31 0 45 68 19 94 -5 5
-5 17 2 29 5 11 12 52 13 91 2 39 6 126 10 194 3 67 4 122 1 122 -4 0 -7 -2
-7 -5z"/>
<path d="M5965 8861 c-3 -5 -2 -12 3 -15 5 -3 9 1 9 9 0 17 -3 19 -12 6z"/>
<path d="M5955 8818 c-2 -7 -6 -24 -8 -38 -3 -14 -15 -72 -26 -129 -12 -57
-20 -106 -18 -108 5 -4 24 66 31 110 3 15 7 35 10 45 3 9 7 28 10 42 3 14 8
40 12 58 6 30 -2 46 -11 20z"/>
<path d="M9194 7212 c3 -5 0 -13 -6 -15 -9 -4 -10 -6 -1 -6 17 -1 25 16 12 25
-7 4 -9 3 -5 -4z"/>
<path d="M9170 7141 c-11 -21 -14 -48 -4 -38 3 3 6 9 6 14 0 4 4 16 9 26 5 9
7 17 5 17 -3 0 -10 -9 -16 -19z"/>
</g>
</svg>
